<svg width="40" height="40" xmlns="http://www.w3.org/2000/svg">
  <!-- Base Tank Body - Heavy Tank -->
  <rect x="7" y="14" width="26" height="24" fill="#554433" rx="3" ry="3" stroke="#332211" stroke-width="1.5"/>
  
  <!-- Tank Hull -->
  <rect x="6" y="21" width="28" height="14" fill="#665544" rx="2" ry="2" stroke="#332211" stroke-width="1.5"/>
  
  <!-- Tank Turret Base - Larger for Heavy Tank -->
  <circle cx="20" cy="21" r="9" fill="#443322" stroke="#332211" stroke-width="1.5"/>
  
  <!-- Tank Turret Top -->
  <ellipse cx="20" cy="21" rx="7" ry="6" fill="#554433" stroke="#332211" stroke-width="1.5"/>
  
  <!-- Tank Treads - Wider for Heavy Tank -->
  <rect x="4" y="22" width="4" height="15" fill="#333333" rx="1" ry="1"/>
  <rect x="32" y="22" width="4" height="15" fill="#333333" rx="1" ry="1"/>
  
  <!-- Tread Details -->
  <line x1="4" y1="24" x2="8" y2="24" stroke="#222222" stroke-width="1.5"/>
  <line x1="4" y1="26" x2="8" y2="26" stroke="#222222" stroke-width="1.5"/>
  <line x1="4" y1="28" x2="8" y2="28" stroke="#222222" stroke-width="1.5"/>
  <line x1="4" y1="30" x2="8" y2="30" stroke="#222222" stroke-width="1.5"/>
  <line x1="4" y1="32" x2="8" y2="32" stroke="#222222" stroke-width="1.5"/>
  <line x1="4" y1="34" x2="8" y2="34" stroke="#222222" stroke-width="1.5"/>
  
  <line x1="32" y1="24" x2="36" y2="24" stroke="#222222" stroke-width="1.5"/>
  <line x1="32" y1="26" x2="36" y2="26" stroke="#222222" stroke-width="1.5"/>
  <line x1="32" y1="28" x2="36" y2="28" stroke="#222222" stroke-width="1.5"/>
  <line x1="32" y1="30" x2="36" y2="30" stroke="#222222" stroke-width="1.5"/>
  <line x1="32" y1="32" x2="36" y2="32" stroke="#222222" stroke-width="1.5"/>
  <line x1="32" y1="34" x2="36" y2="34" stroke="#222222" stroke-width="1.5"/>
  
  <!-- Tank Details - Reinforced Armor -->
  <rect x="11" y="17" width="18" height="2" fill="#332211" rx="1" ry="1"/>
  <rect x="13" y="14" width="14" height="1.5" fill="#332211" rx="1" ry="1"/>
  <circle cx="20" cy="21" r="2.5" fill="#332211"/>
  
  <!-- Armor Plates -->
  <rect x="10" y="25" width="20" height="3" fill="#443322" rx="1" ry="1"/>
  <rect x="10" y="30" width="20" height="3" fill="#443322" rx="1" ry="1"/>
  
  <!-- Enemy Markings (Skull Symbol) -->
  <circle cx="20" cy="13" r="3" fill="#AAAAAA"/>
  <rect x="19" y="13" width="2" height="2" fill="#333333"/>
  <rect x="18" y="12" width="1" height="1" fill="#333333"/>
  <rect x="21" y="12" width="1" height="1" fill="#333333"/>
  
  <!-- Extra Antenna -->
  <line x1="25" y1="15" x2="27" y2="10" stroke="#333333" stroke-width="1"/>
  <circle cx="27" cy="10" r="1" fill="#333333"/>
</svg>
